<svg xmlns="http://www.w3.org/2000/svg" width="32.038" height="26.229" viewBox="0 0 32.038 26.229">
  <path id="Exclusion_1" data-name="Exclusion 1" d="M703.028-2887.771a4.868,4.868,0,0,1-4.805-4.917h-6.408a4.868,4.868,0,0,1-4.805,4.917,4.868,4.868,0,0,1-4.806-4.917h-.8a2.435,2.435,0,0,1-2.4-2.459v-16.394a2.435,2.435,0,0,1,2.4-2.46h16.018a2.435,2.435,0,0,1,2.4,2.46v2.459h2.208a2.39,2.39,0,0,1,1.7.723l5,5.117a2.507,2.507,0,0,1,.7,1.736v5.539h.8a.812.812,0,0,1,.8.82v1.639a.811.811,0,0,1-.8.82h-2.4A4.869,4.869,0,0,1,703.028-2887.771Zm0-7.376a2.434,2.434,0,0,0-2.4,2.459,2.434,2.434,0,0,0,2.4,2.459,2.435,2.435,0,0,0,2.4-2.459A2.435,2.435,0,0,0,703.028-2895.147Zm-16.018,0a2.434,2.434,0,0,0-2.4,2.459,2.434,2.434,0,0,0,2.4,2.459,2.434,2.434,0,0,0,2.4-2.459A2.434,2.434,0,0,0,687.01-2895.147Zm-.556-8.585h0l-.672.688a2.113,2.113,0,0,0-.585,1.7l.181,1.657-1.69,1.729a.211.211,0,0,0,0,.294l.288.294a.2.2,0,0,0,.143.061.2.2,0,0,0,.144-.061l1.688-1.726,1.619.185a2.027,2.027,0,0,0,.225.012,1.991,1.991,0,0,0,1.439-.612l4.63-4.738-3.453-3.534-1.652,1.693,1.417,1.454a.211.211,0,0,1,0,.294l-.287.294a.2.2,0,0,1-.144.061.2.2,0,0,1-.144-.061l-1.418-1.454-1.153,1.18,1.42,1.454a.212.212,0,0,1,0,.294l-.287.294a.2.2,0,0,1-.144.061.2.2,0,0,1-.144-.061l-1.42-1.456Zm13.371-2.891v5.738h7.208v-.62l-5-5.117Zm-8.265-3.428a.2.2,0,0,0-.144.061l-.862.883a.211.211,0,0,0,0,.294l.433.443,3.453,3.54.433.443a.2.2,0,0,0,.144.061.2.2,0,0,0,.144-.061l.863-.886a.212.212,0,0,0,0-.294l-1.871-1.914,1.154-1.181.72.737a.2.2,0,0,0,.144.061.2.2,0,0,0,.143-.061l.288-.293a.217.217,0,0,0,0-.3l-2.016-2.063a.2.2,0,0,0-.144-.06.2.2,0,0,0-.144.06l-.288.294a.212.212,0,0,0,0,.3l.72.736-1.153,1.181-1.44-1.474-.433-.443A.2.2,0,0,0,691.56-2910.052Z" transform="translate(-679 2914)" fill="#2897ca"/>
</svg>
