<svg xmlns="http://www.w3.org/2000/svg" width="23.001" height="23.003" viewBox="0 0 23.001 23.003">
  <g id="map" transform="translate(-0.016)">
    <g id="Group_9" data-name="Group 9" transform="translate(0.016 5.75)">
      <g id="Group_8" data-name="Group 8">
        <path id="Path_5" data-name="Path 5" d="M22.3,132.313a.719.719,0,0,0-.719.719v8.14l-5.75,2.3v-7.565a.719.719,0,0,0-1.438,0v7.563l-5.75-2.3V129.781l3.331,1.333a.719.719,0,1,0,.533-1.335l-4.3-1.722h0l-.011,0a.713.713,0,0,0-.533,0l-.013,0h0L.467,130.927a.719.719,0,0,0-.451.667v12.938A.718.718,0,0,0,1,145.2l6.92-2.767,6.908,2.763h0l.013.006a.713.713,0,0,0,.533,0l.013-.006h0l7.175-2.869a.723.723,0,0,0,.45-.668v-8.625A.719.719,0,0,0,22.3,132.313ZM7.2,141.17l-5.75,2.3V132.08l5.75-2.3Z" transform="translate(-0.016 -128)" fill="#fff"/>
      </g>
    </g>
    <g id="Group_11" data-name="Group 11" transform="translate(15.829 2.875)">
      <g id="Group_10" data-name="Group 10">
        <path id="Path_6" data-name="Path 6" d="M354.172,64a2.156,2.156,0,1,0,2.156,2.156A2.159,2.159,0,0,0,354.172,64Zm0,2.875a.719.719,0,1,1,.719-.719A.719.719,0,0,1,354.172,66.875Z" transform="translate(-352.016 -64)" fill="#fff"/>
      </g>
    </g>
    <g id="Group_13" data-name="Group 13" transform="translate(12.954)">
      <g id="Group_12" data-name="Group 12">
        <path id="Path_7" data-name="Path 7" d="M293.048,0a5.037,5.037,0,0,0-5.032,5.032c0,2.582,4.037,7.155,4.5,7.668a.719.719,0,0,0,1.07,0c.46-.513,4.5-5.086,4.5-7.668A5.037,5.037,0,0,0,293.048,0Zm0,11.123c-1.57-1.862-3.594-4.72-3.594-6.091a3.594,3.594,0,0,1,7.188,0C296.641,6.4,294.617,9.261,293.048,11.123Z" transform="translate(-288.016)" fill="#fff"/>
      </g>
    </g>
  </g>
</svg>
