<svg xmlns="http://www.w3.org/2000/svg" width="32.037" height="26.23" viewBox="0 0 32.037 26.23">
  <path id="Subtraction_5" data-name="Subtraction 5" d="M703.028-2887.771a4.868,4.868,0,0,1-4.805-4.918h-6.407a4.869,4.869,0,0,1-4.805,4.918,4.868,4.868,0,0,1-4.805-4.918h-.8a2.435,2.435,0,0,1-2.4-2.459v-16.394a2.435,2.435,0,0,1,2.4-2.459h16.018a2.434,2.434,0,0,1,2.4,2.459v2.459h2.208a2.389,2.389,0,0,1,1.7.722l5,5.118a2.5,2.5,0,0,1,.705,1.736v5.538h.8a.811.811,0,0,1,.8.82v1.639a.811.811,0,0,1-.8.82h-2.4A4.869,4.869,0,0,1,703.028-2887.771Zm0-7.377a2.434,2.434,0,0,0-2.4,2.459,2.434,2.434,0,0,0,2.4,2.459,2.435,2.435,0,0,0,2.4-2.459A2.434,2.434,0,0,0,703.028-2895.147Zm-16.018,0a2.434,2.434,0,0,0-2.4,2.459,2.434,2.434,0,0,0,2.4,2.459,2.434,2.434,0,0,0,2.4-2.459A2.434,2.434,0,0,0,687.009-2895.147Zm-.555-8.585h0l-.672.688a2.114,2.114,0,0,0-.586,1.7l.181,1.657-1.69,1.729a.21.21,0,0,0-.059.148.207.207,0,0,0,.059.146l.287.295a.2.2,0,0,0,.144.061.2.2,0,0,0,.144-.061l1.687-1.728,1.619.186a2.012,2.012,0,0,0,.224.012,1.992,1.992,0,0,0,1.44-.612l4.63-4.738-3.454-3.535-1.652,1.693,1.417,1.454a.209.209,0,0,1,.059.147.21.21,0,0,1-.059.147l-.287.295a.2.2,0,0,1-.144.06.2.2,0,0,1-.143-.06l-1.418-1.454-1.153,1.18,1.42,1.453a.21.21,0,0,1,.059.147.209.209,0,0,1-.059.147l-.287.294a.2.2,0,0,1-.144.061.2.2,0,0,1-.144-.061l-1.42-1.456Zm13.37-2.891v5.737h7.208v-.62l-5-5.117Zm-8.264-3.429a.2.2,0,0,0-.144.061l-.863.883a.209.209,0,0,0-.059.148.206.206,0,0,0,.059.146l.433.443,3.454,3.54.432.443a.2.2,0,0,0,.144.061.2.2,0,0,0,.144-.061l.863-.886a.212.212,0,0,0,0-.294l-1.871-1.915,1.153-1.18.72.737a.2.2,0,0,0,.144.061.2.2,0,0,0,.144-.061l.287-.294a.216.216,0,0,0,0-.3l-2.016-2.063a.2.2,0,0,0-.144-.061.2.2,0,0,0-.143.061l-.288.294a.208.208,0,0,0-.059.147.21.21,0,0,0,.059.147l.72.737-1.153,1.18-1.44-1.474-.433-.443A.2.2,0,0,0,691.56-2910.052Z" transform="translate(-679 2914)" fill="#2897ca"/>
</svg>
